<?xml version="1.0" standalone="no"?>
<!DOCTYPE svg PUBLIC "-//W3C//DTD SVG 20010904//EN"
 "http://www.w3.org/TR/2001/REC-SVG-20010904/DTD/svg10.dtd">
<svg version="1.0" xmlns="http://www.w3.org/2000/svg"
 width="1024.000000pt" height="300.000000pt" viewBox="0 0 1024.000000 1024.000000">
<style>
  path {
    fill: #444444;
  }
  @media (prefers-color-scheme: dark) {
    path { fill: #d0d0d0; }
  }
</style>
<g transform="translate(0.000000,900.000000) scale(0.100000,-0.100000)"
fill="#000000" stroke="none">
<path d="M6950 8864 c71 -113 86 -252 38 -357 -30 -65 -100 -136 -180 -184
-49 -30 -308 -145 -308 -138 0 8 46 82 78 128 35 49 120 120 181 152 30 15 32
19 17 27 -29 16 -157 21 -218 9 -95 -20 -175 -67 -259 -150 -62 -63 -85 -96
-132 -188 -54 -107 -87 -200 -103 -288 l-7 -40 -9 40 c-13 55 -2 196 22 282
61 218 252 377 545 453 l70 18 -40 18 c-60 27 -218 26 -310 -3 -185 -58 -338
-205 -408 -389 -19 -51 -22 -78 -22 -204 0 -137 2 -149 28 -210 43 -99 44 -94
-6 -130 -25 -18 -51 -46 -58 -64 -7 -17 -13 -32 -14 -34 -1 -1 -15 2 -31 9
-16 6 -52 14 -80 19 -34 6 -81 27 -142 64 -162 98 -364 186 -517 225 -135 34
-246 44 -430 38 -177 -5 -234 -15 -410 -72 -66 -21 -105 -26 -220 -30 -77 -2
-177 -11 -222 -20 -397 -76 -704 -334 -815 -685 -20 -66 -23 -95 -23 -240 l0
-165 38 -108 c37 -104 38 -111 32 -192 -4 -47 -6 -85 -3 -85 2 0 57 11 123 25
260 54 520 66 783 34 76 -9 86 -8 115 10 89 55 257 128 257 113 0 -4 -23 -30
-50 -57 -28 -27 -50 -52 -50 -55 0 -7 181 -147 255 -197 91 -61 237 -131 349
-168 170 -56 274 -70 504 -70 111 0 202 0 202 -1 0 -6 -195 -35 -293 -44 -225
-21 -494 18 -652 94 -95 45 -195 118 -299 217 -48 45 -88 80 -90 78 -2 -2 -11
-19 -20 -36 -18 -36 -15 -65 16 -126 l19 -38 -51 -177 c-28 -97 -67 -240 -86
-317 l-35 -140 38 -30 c100 -80 252 -240 239 -252 -7 -7 -56 -16 -374 -68
-270 -44 -274 -44 -294 -25 -21 19 -257 127 -358 163 -47 17 -86 20 -269 22
-121 2 -216 7 -220 12 -75 114 -75 114 -62 147 28 68 28 68 -15 60 -67 -12
-107 -30 -126 -55 -18 -24 -17 -28 28 -204 52 -206 94 -338 109 -341 6 -2 28
35 49 81 21 46 43 82 47 79 4 -2 17 -30 29 -60 l21 -56 -44 -82 c-24 -44 -75
-137 -112 -206 -101 -185 -174 -337 -181 -377 -9 -47 17 -97 60 -116 17 -8 74
-18 128 -22 83 -6 99 -10 118 -31 20 -21 22 -30 16 -84 -19 -185 -19 -173 3
-202 18 -22 27 -25 58 -21 32 4 58 -6 158 -55 66 -33 127 -62 135 -65 8 -3
-23 -6 -70 -6 -97 -1 -153 -14 -181 -42 -29 -29 -23 -55 25 -107 78 -85 79
-87 36 -300 -40 -200 -40 -246 2 -296 53 -65 173 -154 230 -171 140 -41 434 5
728 116 74 27 158 59 186 69 99 37 125 6 133 -157 6 -105 8 -114 31 -130 101
-71 212 -186 288 -298 53 -79 152 -278 152 -305 0 -12 -22 -74 -49 -139 -73
-174 -95 -253 -96 -346 0 -68 4 -86 24 -119 l24 -39 24 44 c22 41 39 65 153
215 61 81 294 318 415 423 259 224 547 403 780 484 182 63 239 72 450 71 170
0 200 -3 283 -25 51 -14 95 -23 97 -19 2 3 -71 84 -162 180 -91 96 -193 209
-226 250 -226 281 -367 593 -412 914 -6 48 -6 49 17 42 140 -40 208 -46 279
-25 40 12 115 81 106 96 -3 5 -31 10 -63 11 -134 3 -202 115 -139 230 33 61
336 354 474 458 7 6 82 313 97 399 11 61 18 182 21 372 10 530 -24 675 -269
1168 -112 225 -158 302 -233 390 -42 50 -42 50 -26 83 14 31 18 33 49 27 29
-5 38 -1 70 31 l37 37 112 -57 c177 -90 247 -173 280 -333 13 -65 14 -90 4
-156 -7 -43 -19 -96 -27 -119 -8 -23 -12 -43 -10 -46 13 -12 65 14 98 49 42
44 72 97 98 174 l17 49 -5 -134 c-3 -82 0 -157 7 -191 35 -170 166 -315 328
-364 81 -25 303 -14 303 15 0 4 -14 13 -31 21 -17 7 -57 32 -89 55 -80 59
-123 145 -129 257 -4 95 10 153 56 235 l35 63 56 -53 c76 -72 115 -94 198
-114 129 -30 262 1 353 82 54 48 87 96 101 143 11 39 3 45 -31 21 -87 -62
-192 -77 -273 -39 -64 29 -138 113 -164 182 -33 87 -36 125 -22 291 20 228 -1
310 -105 411 -51 50 -177 125 -210 125 -14 0 -16 6 -10 38 9 46 8 46 47 38
111 -21 256 -134 308 -240 38 -77 62 -204 58 -311 -1 -44 2 -82 7 -85 15 -7
71 112 84 177 54 271 -81 568 -309 675 -86 41 -187 68 -251 68 -24 0 -67 3
-96 6 -50 6 -51 7 -38 28 8 11 21 48 29 81 43 162 -7 312 -147 441 -55 51
-162 114 -194 114 -8 0 0 -19 17 -46z m87 -890 c-16 -8 -112 -49 -215 -90
-103 -42 -202 -84 -221 -95 -50 -29 -48 -17 4 25 67 56 149 103 220 126 72 24
179 48 215 49 l25 0 -28 -15z m-2132 -135 c91 -11 243 -43 253 -54 3 -3 -21
-2 -54 2 -32 4 -147 8 -254 7 -176 0 -206 -3 -315 -28 -66 -15 -160 -43 -210
-61 -49 -19 -91 -32 -93 -30 -3 2 23 22 57 44 158 102 391 147 616 120z m2159
-143 c198 -38 347 -181 402 -386 24 -90 24 -283 0 -369 -26 -97 -132 -348
-142 -339 -2 2 6 87 17 188 14 127 19 217 15 286 -10 178 -74 329 -186 441
-62 62 -185 146 -239 165 -35 11 -35 12 -11 19 39 11 62 10 144 -5z m-2149
-101 c-22 -8 -50 -14 -62 -14 -11 -1 -76 -17 -143 -36 -224 -66 -464 -173
-650 -291 -142 -89 -213 -146 -325 -259 -84 -84 -79 -65 12 47 234 288 630
520 958 561 17 2 80 4 140 4 104 1 108 0 70 -12z m765 -141 c-53 -53 -176
-137 -276 -187 -38 -20 -229 -99 -424 -177 -195 -79 -373 -153 -397 -167 -85
-47 -36 11 94 109 39 30 111 76 160 101 210 108 822 365 873 367 8 0 -5 -20
-30 -46z m-490 -109 c-220 -64 -513 -176 -685 -263 -101 -50 -408 -222 -497
-279 -22 -13 -38 -18 -38 -12 0 22 216 225 296 278 170 114 455 228 687 276
163 33 159 32 262 33 l90 1 -115 -34z m854 -97 c-38 -75 -222 -327 -273 -376
-105 -99 -260 -193 -401 -241 -74 -26 -242 -51 -342 -51 -79 0 -279 28 -293
41 -5 5 24 9 76 9 199 0 403 47 588 135 149 72 211 118 361 271 153 155 254
239 293 243 4 1 0 -14 -9 -31z m21 -415 c-88 -233 -243 -376 -501 -463 -133
-45 -229 -60 -388 -60 -141 0 -300 19 -361 44 -27 11 -16 13 100 19 214 11
463 58 625 118 167 62 236 112 480 346 36 35 66 63 67 63 2 0 -9 -30 -22 -67z
m-3039 -1959 c101 -228 104 -238 104 -309 0 -118 -44 -96 -120 60 -43 87 -110
318 -110 377 0 111 39 71 126 -128z m1314 145 c0 -21 -23 -104 -33 -116 -5 -7
-64 -51 -131 -97 -66 -47 -163 -122 -213 -168 -146 -131 -309 -349 -305 -407
1 -14 20 -89 42 -166 22 -77 40 -151 40 -163 0 -15 -27 -55 -72 -108 -40 -46
-75 -84 -78 -84 -3 0 -42 40 -87 89 -69 75 -96 96 -173 135 -70 37 -188 115
-229 152 -2 2 9 21 26 42 47 59 53 76 53 154 l0 73 38 20 c52 28 61 62 61 238
1 173 10 198 76 222 22 8 182 41 355 74 173 34 383 74 465 90 83 16 153 30
158 30 4 1 7 -4 7 -10z m1143 -63 c108 -45 160 -219 103 -341 -41 -89 -156
-172 -261 -190 l-40 -7 60 39 c142 93 200 216 165 344 -15 53 -82 125 -127
137 -38 9 -38 9 -13 20 35 15 75 14 113 -2z m-2097 -1580 c74 -36 134 -69 134
-75 0 -16 -197 -161 -219 -161 -5 0 -32 18 -60 40 -58 46 -59 52 -39 183 10
66 14 77 31 77 11 0 80 -29 153 -64z"/>
</g>
</svg>
